<svg viewBox="0 0 1200 630" xmlns="http://www.w3.org/2000/svg" font-family="Tajawal, Arial, sans-serif">
  <defs>
    <linearGradient id="bg" x1="0" y1="0" x2="1" y2="1">
      <stop offset="0" stop-color="#226b9f"/><stop offset="1" stop-color="#27abe3"/>
    </linearGradient>
  </defs>
  <rect width="1200" height="630" fill="url(#bg)"/>
  <circle cx="1000" cy="120" r="240" fill="rgba(255,255,255,.08)"/>
  <circle cx="180" cy="540" r="180" fill="rgba(255,255,255,.06)"/>
  <g transform="translate(420,210)">
    <path fill="#ffffff" d="M75 5C37 5 6 36 6 74s31 69 69 69c13 0 25-3.5 35-9.6l20 20a12 12 0 0 0 17-17l-19-19A68 68 0 0 0 144 74C144 36 113 5 75 5Zm0 40a29 29 0 1 1 0 58 29 29 0 0 1 0-58Z"/>
  </g>
  <text x="600" y="430" fill="#ffffff" font-size="88" font-weight="800" text-anchor="middle">ITQAAN</text>
  <text x="600" y="490" fill="rgba(255,255,255,.85)" font-size="34" font-weight="500" text-anchor="middle">Information Technology</text>
</svg>
